<svg width="28" height="34" viewBox="0 0 28 34" fill="none" xmlns="http://www.w3.org/2000/svg">
    <path d="M19.2209 22.1277L18.3752 21C21.2644 18.8154 23.0968 14.1642 23.1671 8.94959H6.95913C7.02969 12.0502 7.66392 14.9397 8.93239 17.3354L7.66392 17.9696C6.25459 15.2918 5.5498 11.9795 5.5498 8.4561V7.46959H24.5768V8.4561C24.5766 14.3759 22.533 19.5908 19.221 22.1278L19.2209 22.1277Z" fill="#FFC632"/>
    <path d="M23.3783 18.9565C23.1669 18.9565 23.026 18.9565 22.8146 18.8859C22.3212 18.8154 21.8281 18.3925 21.4756 17.8994L22.6735 17.1946C22.8144 17.406 23.0258 17.5469 23.0963 17.5469C24.0828 17.8289 25.7741 16.1376 26.4084 13.9529C26.9017 12.1208 26.4084 10.6409 25.1399 10.3589C24.8579 10.2884 24.3648 10.218 24.0123 10.4295L23.4486 9.16099C24.0828 8.87903 24.7876 8.87903 25.4922 9.02013C27.1835 9.5135 28.5928 11.3457 27.7471 14.376C27.1131 16.6309 25.2104 18.9565 23.3783 18.9565Z" fill="#FFC632"/>
    <path d="M16.9658 2.53694H18.3751V6.34235H16.9658V2.53694Z" fill="#FFC632"/>
    <path d="M14.3584 0H15.7677V6.34234H14.3584V0Z" fill="#FFC632"/>
    <path d="M11.751 2.53694H13.1603V6.34235H11.751V2.53694Z" fill="#FFC632"/>
    <path d="M18.6566 33.121C18.2338 33.121 17.8815 32.9802 17.529 32.7688C16.895 32.4163 16.1903 31.9231 15.4855 31.4298C13.7942 30.1613 11.8209 28.752 10.2707 28.2586C8.22717 27.4835 6.11305 27.3424 4.21047 27.2721C3.29427 27.2015 2.44863 27.2015 1.74408 27.0607C1.10985 26.9901 0.546166 26.6378 0.264204 26.0742C-0.088068 25.3694 -0.088068 24.5237 0.264204 23.6781C1.25071 21.4231 4.06961 18.4633 7.80435 17.4765C9.70705 16.9831 11.6098 16.9831 13.5125 17.4765C13.6533 17.547 22.9553 20.5068 20.7711 31.2889C20.7006 32.2754 19.7138 33.121 18.6568 33.121H18.6566ZM10.7643 18.3929C9.9187 18.3929 9.07306 18.5338 8.29796 18.7452C5.12679 19.5908 2.58985 22.1278 1.67353 24.1713C1.39157 24.5942 1.39157 25.017 1.53244 25.2989C1.60299 25.4398 1.8144 25.5809 2.02581 25.5809C2.66005 25.7218 3.43514 25.7218 4.35134 25.7923C6.25404 25.9332 8.57957 26.0743 10.7644 26.9199C12.4556 27.4836 14.4992 28.9635 16.2611 30.3025C16.9658 30.7959 17.6001 31.289 18.2343 31.6415C18.3752 31.7121 18.4457 31.7824 18.5866 31.7824C18.9389 31.7824 19.3617 31.4301 19.5028 30.9367C21.4055 21.3526 13.5833 18.8863 13.2311 18.7455C12.4558 18.5339 11.6101 18.393 10.7645 18.393L10.7643 18.3929Z" fill="#FFC632"/>
    <path d="M6.17678 19.0749L7.09509 26.4175L5.69663 26.5923L4.77832 19.2497L6.17678 19.0749Z" fill="#FFC632"/>
    <path d="M19.6732 24.191L20.546 25.2976L14.57 30.0103L13.6973 28.9037L19.6732 24.191Z" fill="#FFC632"/>
</svg>
