<svg width="19" height="31" viewBox="0 0 19 31" fill="none" xmlns="http://www.w3.org/2000/svg">
<path d="M16.6691 10.001C16.8236 9.51566 16.8539 9.0364 16.7583 8.56582C16.5232 7.40784 15.6974 6.71674 14.6084 6.22198C14.5892 6.21207 14.5697 6.20312 14.5495 6.19586C13.9883 5.94657 13.3602 5.74706 12.7082 5.56181C12.7891 5.31323 12.8334 5.04825 12.8334 4.7731C12.8334 3.7773 12.2597 2.91307 11.4247 2.48987C12.2392 1.27116 13.1812 1.12169 13.591 1.12169C14.1884 1.12169 14.5639 1.24912 14.7812 1.36404C14.9502 1.45343 15.155 1.43904 15.3074 1.32366C15.591 1.10879 15.5545 0.674443 15.24 0.507665C14.8901 0.322025 14.3584 0.149414 13.591 0.149414C12.6559 0.149414 11.7788 0.578252 11.0546 1.38952C10.887 1.57736 10.6679 1.8542 10.4474 2.22004C10.3869 2.21576 10.3261 2.21284 10.2645 2.21284C9.26474 2.21284 8.39711 2.78538 7.97282 3.61849C7.81791 3.44828 7.68536 3.24514 7.59113 3.02599C7.53663 2.8992 7.43069 2.80152 7.29964 2.75719C7.16853 2.71285 7.0248 2.72607 6.90416 2.79355C3.96295 4.43799 3.61332 6.96908 3.59758 7.96391C3.57716 7.97214 3.55583 7.98025 3.53625 7.98854C2.4289 8.46152 1.79026 9.36166 1.68952 10.5915C1.65206 11.0486 1.6983 11.4686 1.75293 11.7715C0.732395 12.1526 0.0941404 12.9197 0.00933465 13.9056C-0.0821698 14.9699 0.506073 15.994 1.4658 16.4991C1.45708 16.5648 1.45214 16.6317 1.45214 16.6997C1.45214 17.5396 2.13774 18.2229 2.98046 18.2229H3.00023C3.20809 18.4605 3.32509 18.7663 3.32509 19.0849C3.32509 22.163 5.71083 24.6958 8.73607 24.9437V26.552C8.73607 27.9995 7.55451 29.1771 6.10215 29.1771C5.83277 29.1771 5.61439 29.3948 5.61439 29.6633C5.61439 29.9318 5.83277 30.1494 6.10215 30.1494H12.3455C12.6149 30.1494 12.8333 29.9318 12.8333 29.6633C12.8333 29.3948 12.6149 29.1771 12.3455 29.1771C10.8932 29.1771 9.7116 27.9995 9.7116 26.552V24.9437C12.7368 24.6957 15.1225 22.163 15.1225 19.0849C15.1225 18.7663 15.2395 18.4605 15.4474 18.2229H15.4672C16.3099 18.2229 16.9955 17.5396 16.9955 16.6997C16.9955 16.5661 16.978 16.4367 16.9455 16.3132C17.2909 16.0628 18.5825 15.0252 18.6541 13.4667C18.7091 12.2716 18.041 11.1058 16.6691 10.001ZM10.2645 3.18512C11.1431 3.18512 11.8579 3.89753 11.8579 4.77317C11.8579 5.6488 11.1431 6.36121 10.2645 6.36121C9.38597 6.36121 8.67117 5.6488 8.67117 4.77317C8.67117 3.89753 9.3859 3.18512 10.2645 3.18512ZM4.30074 19.085C4.30074 18.7861 4.24123 18.4938 4.13035 18.223H6.1348V19.2925C6.1348 20.7516 6.42368 22.131 6.94819 23.1765C7.01049 23.3007 7.07559 23.4185 7.14304 23.5305C5.46578 22.7475 4.30074 21.0497 4.30074 19.085ZM9.88147 29.1773H8.56646C8.8238 28.9372 9.04564 28.6601 9.22397 28.3546C9.40223 28.6601 9.62413 28.9372 9.88147 29.1773ZM9.22397 23.9918C8.73074 23.9918 8.2193 23.5362 7.82077 22.7417C7.36266 21.8285 7.11032 20.6036 7.11032 19.2925V18.223H11.3376V19.2925C11.3376 22.0618 10.2237 23.9918 9.22397 23.9918ZM14.1471 19.085C14.1471 21.0497 12.9821 22.7474 11.3048 23.5305C11.3723 23.4185 11.4374 23.3007 11.4997 23.1765C12.0242 22.1309 12.3131 20.7515 12.3131 19.2925V18.223H14.3175C14.2066 18.4939 14.1471 18.7861 14.1471 19.085ZM15.4673 17.2507H2.98059C2.67577 17.2507 2.4278 17.0035 2.4278 16.6997C2.4278 16.3959 2.67577 16.1488 2.98059 16.1488H15.4673C15.7722 16.1488 16.0201 16.3959 16.0201 16.6997C16.0201 17.0035 15.7722 17.2507 15.4673 17.2507ZM17.68 13.4168C17.6336 14.4934 16.6938 15.2837 16.4075 15.5001C16.148 15.2977 15.8217 15.1765 15.4673 15.1765H10.6212C11.5437 14.7182 12.6477 14.1115 13.6664 13.3991C13.887 13.2449 13.9403 12.9418 13.7856 12.722C13.6309 12.5021 13.3266 12.4491 13.1062 12.6032C11.1283 13.9862 8.7349 14.9854 8.26262 15.1766H2.98059C2.55826 15.1766 2.17539 15.3483 1.89847 15.6252C1.30236 15.2966 0.925224 14.6429 0.981414 13.9887C1.04378 13.2632 1.61765 12.7398 2.55591 12.5528C3.35084 12.3943 5.4529 11.9532 7.79775 11.2812C8.05659 11.207 8.20617 10.9377 8.1317 10.6797C8.05723 10.4217 7.78708 10.2724 7.52811 10.3468C5.49394 10.9298 3.64577 11.3362 2.69867 11.5316C2.58271 10.8369 2.55136 9.46712 3.92055 8.88232C4.47783 8.64431 5.61803 8.43735 6.82514 8.21826L7.2307 8.1445C7.49566 8.09601 7.67106 7.8427 7.62241 7.57863C7.57376 7.31456 7.31941 7.13962 7.05465 7.18823L6.6504 7.2618C5.88084 7.40148 5.17345 7.53008 4.58618 7.66892C4.66253 6.71052 5.09567 5.1158 6.95827 3.8976C7.16105 4.20438 7.41482 4.46917 7.69818 4.67043C7.69681 4.70459 7.69558 4.73881 7.69558 4.77336C7.69558 6.1851 8.848 7.33368 10.2645 7.33368C11.0454 7.33368 11.7456 6.98412 12.2171 6.43426C12.8818 6.61887 13.5069 6.80626 14.045 7.03422C14.0879 7.12918 14.0777 7.20061 14.0574 7.26381C13.9568 7.57811 13.3199 8.44538 9.58777 9.70766C9.3327 9.79393 9.19606 10.07 9.28263 10.3242C9.35156 10.5267 9.54121 10.6543 9.74451 10.6543C9.79647 10.6543 9.84934 10.6459 9.90131 10.6283C11.8766 9.96025 14.5527 8.91532 14.9869 7.55938C14.9874 7.5577 14.9878 7.55601 14.9883 7.55433C15.4096 7.86844 15.6998 8.25508 15.8022 8.75898C15.9513 9.49298 15.6117 10.3085 14.7931 11.1829C14.6093 11.3793 14.62 11.6868 14.817 11.87C14.911 11.9574 15.0304 12.0007 15.1496 12.0007C15.2801 12.0007 15.4103 11.9489 15.5064 11.8463C15.8 11.5327 16.0443 11.2201 16.2392 10.9093C17.2304 11.7555 17.7151 12.5982 17.68 13.4168Z" fill="#FFC632"/>
</svg>
