<svg width="30" height="31" viewBox="0 0 30 31" fill="none" xmlns="http://www.w3.org/2000/svg">
<path d="M28.0441 23.8858C28.5194 24.1158 28.8996 24.3455 29.2039 24.6138C29.6982 25.0351 29.9645 25.514 29.9645 26.012C29.9645 27.2763 28.1962 28.349 25.3635 29.0768C22.7017 29.7473 19.0324 30.1494 14.9824 30.1494C10.9518 30.1494 7.2821 29.7472 4.62008 29.0768C1.76806 28.3488 0 27.2762 0 26.012C0 25.514 0.266287 25.0352 0.760614 24.6138C1.06473 24.3647 1.44514 24.1158 1.92045 23.8858C0.779663 22.7173 0.114132 21.1849 0.0192629 19.1929H0.000242082V11.4157C0.000242082 11.1474 0.209469 10.9176 0.475542 10.9176H19.1273C19.6977 10.5729 20.3822 9.97911 21.0856 9.27028C21.9982 8.35089 22.949 7.27823 23.7284 6.28219C24.5649 5.24781 25.4776 4.5199 26.4283 4.23262C27.3218 3.96435 28.2536 4.09848 29.1471 4.78814C30.2689 5.63088 30.1548 6.45464 29.5463 7.16341C29.052 7.73807 28.2153 8.1786 27.588 8.4469C27.0937 8.65769 26.5423 9.09821 26.029 9.6154C25.6488 10.0176 25.2684 10.4773 24.9452 10.918H29.4894C29.7557 10.918 29.9647 11.148 29.9647 11.416V19.1933C29.8696 21.1853 29.1851 22.7177 28.0445 23.8862L28.0441 23.8858ZM0.969616 15.8024H28.9949V11.8947H0.969616V15.8024ZM28.9949 19.1929H0.988879C1.14104 21.932 2.56693 23.6944 4.84856 24.7669C7.37724 25.9546 10.9329 26.3568 14.9824 26.3568C19.0321 26.3568 22.5875 25.9546 25.1163 24.7669C27.3979 23.6943 28.8428 21.9319 28.995 19.1929H28.9949ZM28.9949 16.7603H0.969616V18.2352H28.9949V16.7603ZM20.7242 10.9178H23.7852C24.2035 10.2665 24.7548 9.55789 25.3443 8.94491C25.9337 8.33193 26.5802 7.83393 27.2076 7.56585C27.74 7.31674 28.4436 6.95287 28.8047 6.53147C29.052 6.26319 29.071 5.93763 28.5765 5.55461C27.949 5.07576 27.3025 4.97996 26.6943 5.17157C25.9337 5.38236 25.1923 6.01431 24.4888 6.89553C23.6901 7.91072 22.7015 9.0217 21.7509 9.96029C21.4087 10.305 21.0663 10.6308 20.7242 10.918L20.7242 10.9178ZM17.9102 6.30155C18.0243 6.55067 17.8912 6.81873 17.6439 6.93373C17.3967 7.02954 17.1306 6.91457 17.0164 6.66545C16.3129 4.88397 16.6362 3.81132 16.9404 2.8536C17.1496 2.20229 17.3396 1.60844 17.0164 0.823226C16.9213 0.574114 17.0355 0.286889 17.2827 0.191052C17.53 0.0760785 17.8151 0.210215 17.9102 0.459329C18.3665 1.57031 18.1194 2.31747 17.8722 3.14101C17.6059 3.94564 17.3398 4.84584 17.9102 6.30155ZM8.28949 6.30155C8.38459 6.55067 8.27047 6.81873 8.02321 6.93373C7.77594 7.02954 7.49085 6.91457 7.39572 6.66545C6.6922 4.88397 7.01552 3.81132 7.31964 2.8536C7.52886 2.20229 7.69984 1.60844 7.39572 0.823226C7.30062 0.574114 7.41474 0.286889 7.66201 0.191052C7.90927 0.0760785 8.19437 0.210215 8.28949 0.459329C8.72676 1.57031 8.49872 2.31747 8.23243 3.14101C7.98517 3.94564 7.70007 4.84584 8.28949 6.30155ZM13.0997 6.30155C13.1948 6.55067 13.0807 6.81873 12.8335 6.93373C12.5862 7.02954 12.3011 6.91457 12.206 6.66545C11.5024 4.88397 11.8258 3.81132 12.1299 2.8536C12.3391 2.20229 12.5291 1.60844 12.206 0.823226C12.1109 0.574114 12.225 0.286889 12.4723 0.191052C12.7195 0.0760785 13.0046 0.210215 13.0997 0.459329C13.537 1.57031 13.309 2.31747 13.0427 3.14101C12.7954 3.94564 12.5293 4.84584 13.0997 6.30155ZM2.71868 24.5945C2.14829 24.8436 1.69197 25.0925 1.38767 25.3608C1.10258 25.5908 0.969434 25.8205 0.969434 26.0121C0.969434 26.7784 2.4524 27.5253 4.84811 28.1383C7.43383 28.7896 11.0079 29.1918 14.982 29.1918C18.956 29.1918 22.5303 28.7896 25.1158 28.1383C27.5115 27.5253 28.9945 26.7784 28.9945 26.0121C28.9945 25.8013 28.8614 25.5908 28.5763 25.3416C28.2722 25.0925 27.8157 24.8436 27.2643 24.5945C26.7319 24.9967 26.1615 25.3416 25.515 25.648C22.8532 26.9123 19.1455 27.3337 14.982 27.3337C10.8182 27.3337 7.12972 26.9124 4.44898 25.648C3.80249 25.3417 3.2321 24.9967 2.71875 24.5945H2.71868Z" fill="#FFC632"/>
</svg>
