<svg width="31" height="22" viewBox="0 0 31 22" fill="none" xmlns="http://www.w3.org/2000/svg">
<path d="M29.3269 11.4031C29.6422 11.1635 29.8463 10.7854 29.8463 10.3604C29.8463 9.78932 29.4777 9.30258 28.9652 9.12346C28.7686 4.14187 24.6418 0.149414 19.5963 0.149414H10.5041C5.45739 0.149414 1.32988 4.14363 1.13488 9.12686C0.627639 9.30879 0.263848 9.79295 0.263848 10.3604C0.263848 10.7828 0.465497 11.1588 0.777729 11.3987C0.295536 11.8373 0 12.4683 0 13.1646C0 14.0193 0.452975 14.7701 1.13188 15.1924V17.9267C1.13188 19.893 2.73696 21.4927 4.70988 21.4927H25.3903C27.3633 21.4927 28.9683 19.893 28.9683 17.9267V15.1924C29.6474 14.7701 30.1003 14.0193 30.1003 13.1646C30.1003 12.4709 29.8065 11.8417 29.3269 11.4031ZM1.57892 9.94084H5.208H5.20806V9.04975H5.208H2.03271C2.26581 4.59404 5.97639 1.04051 10.5041 1.04051H19.5963C24.1239 1.04051 27.8345 4.59398 28.0676 9.04975H6.50673H6.50667V9.94084H6.50673H28.5313C28.7635 9.94084 28.9523 10.129 28.9523 10.3604C28.9523 10.5918 28.7635 10.78 28.5313 10.78C28.3551 10.78 28.1913 10.7866 28.0376 10.7984L28.0372 10.7982L28.0269 10.7991C27.119 10.8703 26.5781 11.1287 26.0928 11.3609C25.5396 11.6255 25.0619 11.854 24.0412 11.854C23.9136 11.854 23.7945 11.8505 23.6827 11.8437C22.8999 11.7964 22.4737 11.5924 21.9897 11.3609C21.4206 11.0886 20.7754 10.78 19.5512 10.78C19.3216 10.78 19.1124 10.7908 18.9202 10.8103C18.0875 10.8945 17.575 11.1396 17.1125 11.3609C16.9786 11.425 16.8491 11.4868 16.7153 11.5439C16.3022 11.7201 15.8469 11.8499 15.0931 11.8536C15.0826 11.8537 15.0728 11.854 15.0622 11.854L15.0552 11.8539L15.0435 11.854C15.0152 11.854 14.989 11.8532 14.9615 11.8528C14.9272 11.8523 14.8921 11.8523 14.859 11.8513C14.8498 11.851 14.8414 11.8504 14.8323 11.8501C14.4293 11.8361 14.1162 11.7833 13.8464 11.7062C13.5311 11.616 13.2739 11.4929 12.9979 11.3609C12.4287 11.0886 11.7836 10.78 10.5592 10.78C9.33492 10.78 8.68983 11.0886 8.12068 11.3609C7.63667 11.5924 7.21044 11.7964 6.42766 11.8437C6.31584 11.8505 6.19673 11.854 6.06916 11.854C5.04833 11.854 4.57066 11.6255 4.01763 11.3609C3.5312 11.1282 2.98899 10.8691 2.07751 10.7987L2.06646 10.7978L2.06605 10.7978C1.91431 10.7864 1.75276 10.78 1.57915 10.78C1.34699 10.78 1.15816 10.5918 1.15816 10.3604C1.15792 10.129 1.34675 9.94084 1.57892 9.94084ZM28.0744 16.6038H18.5395V17.4949H28.0743V17.9267C28.0743 19.4017 26.8703 20.6016 25.3904 20.6016H4.70994C3.23002 20.6016 2.02601 19.4016 2.02601 17.9267V15.5535H2.39697H3.41392L9.77879 18.9812L16.1436 15.5535H27.7034H28.0743V16.6038H28.0744ZM5.29472 15.5535H14.2627L9.77885 17.9684L5.29472 15.5535ZM27.7034 14.6624H17.7982L17.7984 14.6623H2.39468C1.56698 14.6611 0.894074 13.9897 0.894074 13.1645C0.894074 12.4433 1.39931 11.8337 2.10285 11.6954C2.78599 11.7613 3.19622 11.9574 3.62985 12.1646C4.16337 12.4196 4.76367 12.7063 5.84405 12.7416C5.91683 12.744 5.99173 12.7452 6.06898 12.7452C7.29322 12.7452 7.93832 12.4366 8.50746 12.1643C9.06061 11.8996 9.53828 11.6711 10.5591 11.6711C10.8143 11.6711 11.0356 11.6854 11.2326 11.711C11.3311 11.7237 11.4235 11.7394 11.5111 11.7574C11.5548 11.7664 11.5974 11.776 11.639 11.7863C12.0124 11.8779 12.2997 12.0154 12.6109 12.1643C12.9844 12.343 13.3906 12.5373 13.9718 12.6497C14.0548 12.6659 14.1414 12.6802 14.232 12.6927C14.2924 12.701 14.3546 12.7085 14.4185 12.7149C14.6107 12.7343 14.8199 12.7452 15.0495 12.7452H15.0607C15.3285 12.7452 15.5686 12.7304 15.7863 12.7045C16.5326 12.6156 17.0149 12.3956 17.4457 12.1899C17.4637 12.1813 17.4815 12.1728 17.4993 12.1643C18.0524 11.8997 18.5302 11.6712 19.551 11.6712C19.8062 11.6712 20.0275 11.6855 20.2244 11.711C20.3229 11.7238 20.4153 11.7394 20.5029 11.7574C20.5467 11.7664 20.5893 11.7761 20.6308 11.7863C21.0043 11.878 21.2915 12.0155 21.6026 12.1644C21.9762 12.3431 22.3824 12.5374 22.9635 12.6498C23.0465 12.6659 23.1331 12.6803 23.2236 12.6928C23.284 12.7011 23.3462 12.7085 23.4102 12.715C23.6024 12.7344 23.8115 12.7453 24.0411 12.7453C24.1176 12.7453 24.1918 12.7441 24.2639 12.7417C25.3457 12.7068 25.9463 12.4198 26.4802 12.1646C26.9125 11.9581 27.3213 11.7627 28.0004 11.6961C28.7022 11.8355 29.2061 12.4447 29.2061 13.1645C29.2063 13.9904 28.5321 14.6624 27.7034 14.6624Z" fill="#FFC632"/>
<path d="M12.2273 9.09082H10.8311V9.98191H12.2273V9.09082Z" fill="#FFC632"/>
<path d="M14.4421 11.0322H13.0459V11.9233H14.4421V11.0322Z" fill="#FFC632"/>
<path d="M10.0124 11.0322H8.61621V11.9233H10.0124V11.0322Z" fill="#FFC632"/>
<path d="M22.3923 4.03223H20.9961V4.92332H22.3923V4.03223Z" fill="#FFC632"/>
<path d="M17.9626 4.03223H16.5664V4.92332H17.9626V4.03223Z" fill="#FFC632"/>
<path d="M15.7498 2.09082H14.3535V2.98191H15.7498V2.09082Z" fill="#FFC632"/>
<path d="M20.1774 2.09082H18.7812V2.98191H20.1774V2.09082Z" fill="#FFC632"/>
</svg>
