<svg width="32" height="36" viewBox="0 0 32 36" fill="none" xmlns="http://www.w3.org/2000/svg">
<path d="M30.2973 0.799804C29.0457 -0.0078824 26.57 -0.786105 24.002 3.01061C23.7689 3.11877 23.0058 3.26944 22.3276 3.40275C19.2047 4.01785 12.7065 5.29893 7.91661 10.5046C3.71272 15.0744 3.02274 20.8054 2.56634 24.5973C2.35031 26.3911 2.16379 27.94 1.70401 28.4244C0.53831 29.6514 -0.0496494 30.9392 0.00328333 32.1483C0.0434804 33.0557 0.455284 33.8799 1.19445 34.532C1.69619 34.9745 2.26643 35.1494 2.8561 35.1494C4.65574 35.1494 6.62624 33.5184 7.30467 32.8998C7.51201 32.7708 8.52182 32.5965 9.41228 32.442C13.4603 31.7419 21.8829 30.2847 25.6541 23.5782C29.4766 16.7809 29.814 11.5614 29.976 9.05317C30.0058 8.59018 30.0399 8.06529 30.0868 7.93662C30.1374 7.79724 30.2961 7.51817 30.4644 7.22262C31.3187 5.72407 33.0946 2.6043 30.297 0.799775L30.2973 0.799804ZM29.3841 6.60782C29.1721 6.97971 29.0052 7.27353 28.9185 7.51212C28.8112 7.80824 28.7825 8.24665 28.7357 8.97336C28.5795 11.3898 28.2545 16.418 24.5708 22.9683C21.0893 29.1601 13.3557 30.4981 9.20107 31.2169C7.54024 31.5041 6.85175 31.6337 6.49343 31.9599C5.33439 33.0133 3.08856 34.5446 2.01799 33.5998C1.53129 33.1704 1.2719 32.6637 1.24643 32.0937C1.20913 31.2426 1.69178 30.2438 2.60617 29.2811C3.34997 28.4983 3.53912 26.9242 3.80142 24.746C4.26498 20.8955 4.89975 15.6216 8.83239 11.347C13.346 6.44125 19.3456 5.25881 22.5682 4.62318C24.0772 4.3256 24.7015 4.20241 24.9899 3.77092C26.048 2.18383 27.1241 1.38747 28.2045 1.38747C28.677 1.38747 29.1501 1.54016 29.6233 1.84467C31.2922 2.92191 30.4203 4.78862 29.3838 6.60817L29.3841 6.60782Z" fill="#FFC632"/>
<path d="M28.7928 3.52106C28.4914 3.35739 28.1149 3.46872 27.9498 3.7689C27.9026 3.85508 26.7583 5.88288 24.0151 6.28628C22.3526 6.53035 13.8543 8.00344 9.81065 13.0044C7.67388 15.6469 6.2253 19.1198 5.48587 23.3525C5.48269 23.3678 5.47719 23.3823 5.47517 23.3982C5.47314 23.4153 5.47228 23.4306 5.47025 23.4477C5.31641 24.3436 5.19205 25.271 5.10182 26.234C4.83056 29.1261 4.19323 30.3387 3.25192 31.3581C3.01884 31.6106 3.03474 32.0042 3.28662 32.2369C3.40635 32.3477 3.5573 32.4021 3.70825 32.4021C3.87569 32.4021 4.04284 32.335 4.16546 32.2022C4.83579 31.4764 5.31673 30.7086 5.66342 29.7577C8.37683 29.686 16.1707 29.3876 22.1858 22.1983C27.563 15.7732 26.8973 6.99146 26.86 6.55097C28.3391 5.63313 29.0037 4.43441 29.0436 4.36067C29.2056 4.05905 29.0934 3.68455 28.7923 3.52085L28.7928 3.52106ZM10.7786 13.7863C11.2101 13.2525 11.7052 12.7632 12.2407 12.3112C12.9093 12.4549 14.401 12.576 16.3906 11.5384C17.796 10.8047 19.3947 10.6619 20.3681 11.1844C20.9774 11.5112 21.3296 12.0824 21.4144 12.8823C21.5387 14.05 20.8563 14.8797 20.1964 15.6816C19.4468 16.5925 18.5974 17.6246 19.3568 18.9751C19.6989 19.5833 19.5833 21.0621 18.6952 22.6044C18.1712 23.5144 16.6622 25.6345 13.9759 25.6706C13.2347 25.6804 12.5228 25.7111 11.8342 25.7406C9.60948 25.8363 7.68842 25.9184 6.99926 25.166C6.70892 24.8487 6.61464 24.3334 6.70661 23.5963C7.4073 19.5613 8.77143 16.2691 10.7787 13.7863L10.7786 13.7863ZM6.3413 26.3495C6.3442 26.3162 6.34882 26.2844 6.35171 26.2518C7.1406 26.8868 8.324 27.0447 9.78931 27.0447C10.4374 27.0447 11.1404 27.0143 11.888 26.9825C12.495 26.9565 13.1231 26.9316 13.765 26.9195C10.56 28.2437 7.6412 28.4476 6.02205 28.5022C6.16086 27.8695 6.26496 27.1621 6.34103 26.3495L6.3413 26.3495ZM21.2335 21.3998C20.8443 21.8648 20.4464 22.2969 20.043 22.7029C20.8391 21.0679 21.0097 19.3764 20.4406 18.3648C20.1283 17.8093 20.3888 17.4041 21.1566 16.4715C21.9024 15.5652 22.8307 14.4376 22.6512 12.7502C22.5213 11.5333 21.9351 10.6132 20.9551 10.0877C19.6148 9.36963 17.5965 9.50612 15.8151 10.4356C15.0696 10.8245 14.4276 11.0163 13.9015 11.1039C18.0588 8.49337 23.442 7.62816 24.1964 7.51682C24.7288 7.43845 25.207 7.30542 25.6441 7.14232C25.7036 9.05441 25.6021 16.1794 21.2337 21.4001L21.2335 21.3998Z" fill="#FFC632"/>
<path d="M12.4483 24.0166C12.8572 24.0166 13.2817 23.9715 13.7083 23.8787C15.4848 23.4917 16.8926 22.3986 17.5719 20.8792C18.3533 19.1302 18.0424 17.0076 16.8157 15.717C15.6777 14.5191 13.9973 14.2309 12.206 14.924C10.3188 15.6545 9.04313 17.1594 8.70629 19.0525C8.41826 20.671 8.86765 22.3243 9.82483 23.1664C10.4547 23.7193 11.4012 24.0166 12.4484 24.0166L12.4483 24.0166ZM9.93062 19.2693C10.0827 18.4139 10.6391 16.863 12.6548 16.0828C13.9714 15.5732 15.1291 15.7465 15.9139 16.573C16.8028 17.5079 17.0171 19.07 16.4359 20.3715C15.9202 21.5262 14.8294 22.3614 13.4433 22.6633C12.3201 22.9079 11.2221 22.7382 10.6463 22.2318C10.1122 21.7619 9.69519 20.5929 9.93061 19.2693H9.93062Z" fill="#FFC632"/>
</svg>
