<svg width="33" height="42" viewBox="0 0 33 42" fill="none" xmlns="http://www.w3.org/2000/svg">
<path d="M28.4166 20.6621C25.8805 18.9886 24.368 16.1503 24.3809 13.1187C24.3809 12.7647 24.0913 12.475 23.7373 12.475H16.8828C16.5288 12.475 16.2392 12.7647 16.2392 13.1187C16.2392 14.245 15.9688 15.3521 15.4475 16.3498H8.97871C8.62471 16.3498 8.33507 16.6394 8.33507 16.9934C8.348 20.0315 6.82256 22.8698 4.28648 24.5369C1.56393 26.3327 0 28.9395 0 31.6942C0 36.9077 5.56118 41.1494 12.3961 41.1494C16.6056 41.1494 20.3257 39.5403 22.5722 37.0816H22.7009C28.5 36.1675 32.7093 32.2864 32.7093 27.7941C32.7096 25.052 31.1456 22.4452 28.4165 20.6623L28.4166 20.6621ZM12.3896 39.8491C6.26874 39.8491 1.28669 36.1867 1.28669 31.6812C1.28669 29.3704 2.63833 27.1564 4.98757 25.6051C7.69084 23.8222 9.39019 20.8744 9.58329 17.6431H11.347C11.2634 19.162 10.845 24.176 8.87528 26.1524C8.62415 26.4098 8.62415 26.8219 8.88161 27.0727C9.13906 27.3239 9.55111 27.3239 9.80197 27.0664C12.1513 24.7171 12.5826 19.2207 12.6599 17.6436H15.1893C15.3824 20.8747 17.0818 23.8225 19.785 25.5989C22.1406 27.15 23.4859 29.3642 23.4859 31.675C23.4922 36.1808 18.5106 39.8496 12.3896 39.8496L12.3896 39.8491ZM23.6919 35.5563V35.5371C24.3999 34.3656 24.7731 33.0269 24.7798 31.656C24.7798 28.9013 23.2221 26.2945 20.4933 24.4986C18.0152 22.8637 16.5027 20.109 16.4642 17.1354C17.0498 16.0993 17.4038 14.9471 17.5004 13.7626H23.1064C23.2995 16.9938 25.0051 19.9415 27.7083 21.718C30.0639 23.269 31.4092 25.4833 31.4092 27.7941C31.4155 31.3407 28.2295 34.4623 23.6922 35.5567L23.6919 35.5563Z" fill="#FFC632"/>
<path d="M18.3049 31.7202C16.0137 29.1456 15.3378 25.4706 15.3312 25.4318C15.2669 25.0778 14.9321 24.8333 14.5718 24.8976C14.2178 24.962 13.9733 25.2967 14.0376 25.657C14.0698 25.818 14.7778 29.7312 17.3461 32.5824C17.5714 32.8591 17.9768 32.9043 18.2535 32.679C18.5302 32.4537 18.5753 32.0483 18.35 31.7716C18.3371 31.7523 18.3242 31.7331 18.3049 31.7201L18.3049 31.7202Z" fill="#FFC632"/>
<path d="M25.3593 23.3654C21.7742 20.4883 22.0767 15.7447 22.0767 15.6998C22.1026 15.3458 21.8385 15.0303 21.4782 15.0048C21.1242 14.9789 20.8087 15.243 20.7831 15.6033C20.7831 15.8222 20.4099 21.0742 24.5484 24.3825C24.8252 24.6078 25.2372 24.5627 25.4559 24.286C25.6877 23.996 25.6426 23.5906 25.3593 23.3653L25.3593 23.3654Z" fill="#FFC632"/>
<path d="M5.62554 14.6766C5.97954 14.6766 6.2755 14.387 6.2755 14.033C6.2755 13.885 6.22406 13.7433 6.13384 13.6339C2.91565 9.56601 6.47491 6.41218 6.6295 6.27728C6.89988 6.04569 6.93207 5.63996 6.70018 5.36324C6.46859 5.09285 6.06286 5.06067 5.78614 5.29255C5.74103 5.33106 1.11348 9.37336 5.11664 14.4322C5.23934 14.5865 5.4261 14.6767 5.62552 14.6767L5.62554 14.6766Z" fill="#FFC632"/>
<path d="M10.0354 6.00658C9.00555 6.92695 7.73122 8.0599 7.98867 10.2739C8.32974 13.151 10.827 13.9297 12.108 13.9363C12.462 13.9363 12.7516 13.6466 12.7516 13.2926C12.7516 12.9386 12.462 12.649 12.108 12.649C12.0051 12.649 9.55929 12.6039 9.263 10.1259C9.08284 8.58113 9.91957 7.83466 10.885 6.97204C11.7477 6.18673 12.7645 5.29226 12.7645 3.7668C12.7645 1.30803 10.4023 0.317048 9.15384 0.156101C8.79984 0.104668 8.46509 0.355511 8.41998 0.716125C8.36854 1.07013 8.61939 1.40488 8.98 1.44999C9.08286 1.44999 11.4709 1.81692 11.4709 3.78003C11.4836 4.68716 10.9301 5.22134 10.0353 6.00665L10.0354 6.00658Z" fill="#FFC632"/>
</svg>
