<svg width="32" height="23" viewBox="0 0 32 23" fill="none" xmlns="http://www.w3.org/2000/svg">
<path d="M31.9443 8.87154C31.9443 8.76732 31.9374 8.66356 31.9235 8.56025L31.8919 8.37412C31.5704 6.21018 29.3312 4.99779 27.5075 4.61461V4.61438C26.3834 4.40503 25.2464 4.27215 24.1038 4.21618L23.8639 4.20116C22.9964 4.14655 22.1332 4.0371 21.2799 3.87372C19.9235 3.53832 18.6044 3.07025 17.3424 2.47638L17.2761 2.4493C17.2191 2.41266 17.1574 2.38354 17.0927 2.36215L16.734 2.19081V2.19103C14.9783 1.2872 13.0998 0.637342 11.1563 0.260977C10.6648 0.184749 10.1677 0.14766 9.67026 0.149478H9.62753C7.86113 0.17155 6.13304 0.660317 4.62371 1.56436L4.60709 1.57391C3.12685 2.43446 1.91843 3.68327 1.11679 5.18121C0.584881 6.14988 0.268028 7.21868 0.186906 8.31702C-0.164157 10.2443 -0.0191139 12.2276 0.608874 14.0853C1.00313 15.9719 1.97665 17.6935 3.39728 19.0166C6.01457 21.1911 9.3732 22.3047 12.7925 22.132C17.1403 22.0291 21.4208 21.0502 25.3705 19.2558C27.6413 18.1963 29.5301 16.4797 30.7854 14.3353C30.8489 14.2224 30.8778 14.1437 30.8736 14.1571L30.8738 14.1574C31.7774 12.547 32.1515 10.7 31.9443 8.87148L31.9443 8.87154ZM20.9267 5.47359V5.47337C21.7237 5.63105 22.5302 5.73982 23.3409 5.79967L27.8937 12.0804C27.0795 12.6008 26.233 13.0707 25.3593 13.487L19.1912 4.97704C19.7585 5.17569 20.3378 5.33952 20.9255 5.46763L20.9267 5.47359ZM16.0372 3.67256L16.2952 3.79635L23.8249 14.1687L23.8252 14.1684C22.8958 14.5457 21.9472 14.875 20.9832 15.1551L11.4018 1.957C13.0095 2.34906 14.5653 2.92473 16.0372 3.67245L16.0372 3.67256ZM9.2483 1.79278L19.2655 15.5903C18.2229 15.8228 17.1684 15.9987 16.1061 16.1177L6.24976 2.55266C7.19117 2.11441 8.20856 1.85661 9.24788 1.79288L9.2483 1.79278ZM4.8251 3.39109L14.1884 16.2764C13.0329 16.336 11.8751 16.3324 10.72 16.2657L10.6193 16.2561L2.82467 5.51684C3.34434 4.68675 4.02405 3.96454 4.82504 3.39111L4.8251 3.39109ZM1.82721 8.54795V8.47718C1.85678 8.06123 1.92837 7.64913 2.04109 7.24731L8.38713 15.9845V15.9843C7.19792 15.7924 6.05784 15.3747 5.03052 14.7542C4.21061 14.2269 3.50872 13.5402 2.96801 12.7359C2.56567 12.1352 2.26127 11.4762 2.06562 10.7826C1.85568 10.057 1.77484 9.30104 1.82704 8.54814L1.82721 8.54795ZM29.3701 13.4832L29.2955 13.6191V13.6193C28.2005 15.4296 26.5849 16.8789 24.6531 17.7838C20.9667 19.5346 10.1671 22.9582 4.52056 17.8164C3.62651 16.9806 2.94537 15.9487 2.53243 14.8043C3.01145 15.3056 3.54982 15.7489 4.13553 16.1241C5.94468 17.1783 7.99235 17.7706 10.0925 17.8478L10.5974 17.8912C11.2561 17.9265 11.9132 17.9442 12.5689 17.9442C13.6452 17.9442 14.721 17.8908 15.7918 17.7838C17.5074 17.6193 19.2059 17.3146 20.8702 16.8732C22.4338 16.4506 23.9603 15.9052 25.4354 15.2421C26.6995 14.6821 27.9137 14.0188 29.065 13.259C29.2293 13.1598 29.3858 13.0495 29.5341 12.9287C29.5563 12.9136 29.5769 12.8975 29.5963 12.8797L29.6928 12.8049C29.6032 13.032 29.4942 13.2563 29.3701 13.4845L29.3701 13.4832ZM30.1566 9.64203L30.1563 9.64226C29.9561 10.1847 29.6302 10.6737 29.2045 11.0708L25.4987 5.96552C26.0578 6.01786 26.6138 6.09955 27.1639 6.21013C28.567 6.50503 30.0611 7.36131 30.2431 8.49221V8.5657V8.63374L30.2434 8.63351C30.25 8.68539 30.2597 8.73659 30.2722 8.78711C30.2962 9.07746 30.2572 9.36917 30.1577 9.64358L30.1566 9.64203Z" fill="#FFC632"/>
</svg>
