<svg width="31" height="26" viewBox="0 0 31 26" fill="none" xmlns="http://www.w3.org/2000/svg">
<path d="M18.5703 4.02283C18.2391 4.02283 17.9707 4.29037 17.9707 4.62043V7.53078C17.9707 7.86084 18.2391 8.12838 18.5703 8.12838C18.9015 8.12838 19.1699 7.86084 19.1699 7.53078V4.62043C19.1699 4.29043 18.9015 4.02283 18.5703 4.02283Z" fill="#FFC632"/>
<path d="M23.8606 6.36205C23.6264 6.12867 23.2468 6.12867 23.0126 6.36205L21.7772 7.59333C21.543 7.82671 21.543 8.20511 21.7772 8.43854C21.8943 8.55526 22.0477 8.61356 22.2012 8.61356C22.3546 8.61356 22.5081 8.55526 22.6252 8.43854L23.8606 7.20726C24.0947 6.97388 24.0947 6.59548 23.8606 6.36205Z" fill="#FFC632"/>
<path d="M15.5871 7.59322L14.3518 6.36192C14.1176 6.12854 13.738 6.12854 13.5037 6.36192C13.2696 6.5953 13.2696 6.9737 13.5037 7.20714L14.7391 8.43843C14.8563 8.55515 15.0097 8.61345 15.1631 8.61345C15.3166 8.61345 15.4701 8.55515 15.5871 8.43843C15.8213 8.205 15.8213 7.8266 15.5871 7.59322Z" fill="#FFC632"/>
<path d="M29.5007 9.50596H27.3168C27.6211 8.8609 27.7793 8.15537 27.7793 7.424C27.7793 4.72846 25.579 2.53547 22.8744 2.53547C22.8723 2.53547 22.8703 2.53547 22.8682 2.53547C22.0119 0.982676 20.3668 0 18.5692 0C16.7716 0 15.1265 0.982735 14.2703 2.53547C14.2681 2.53547 14.2661 2.53547 14.264 2.53547C11.5595 2.53547 9.35921 4.72846 9.35921 7.424C9.35921 8.16023 9.52429 8.85715 9.8508 9.50596H8.19993V4.82871C8.19993 4.49865 7.9315 4.23111 7.60033 4.23111C5.14351 4.23111 3.14478 6.22318 3.14478 8.67188C3.14478 8.9509 3.17159 9.23133 3.22332 9.50596H0.599596C0.268434 9.50596 0 9.7735 0 10.1036C0 18.3998 6.75147 25.1494 15.0502 25.1494C23.3489 25.1494 30.1003 18.3998 30.1003 10.1036C30.1003 9.7735 29.8319 9.50596 29.5007 9.50596ZM14.264 3.73072C14.362 3.73072 14.4662 3.73553 14.5826 3.74537C14.8368 3.76682 15.0777 3.62525 15.1814 3.39234C15.7759 2.05764 17.1057 1.1952 18.5692 1.1952C20.0328 1.1952 21.3626 2.05764 21.9571 3.39234C22.0608 3.62525 22.3013 3.76711 22.556 3.74537C22.6723 3.73553 22.7765 3.73072 22.8745 3.73072C24.9178 3.73072 26.5801 5.38752 26.5801 7.424C26.5801 8.17682 26.359 8.89289 25.9397 9.50596H11.2512C10.7853 8.86834 10.5584 8.18572 10.5584 7.424C10.5584 5.38752 12.2207 3.73072 14.264 3.73072ZM7.00068 5.4815V9.50602H4.45085C4.38048 9.23584 4.34397 8.95313 4.34397 8.67193C4.34391 7.08645 5.49061 5.76281 7.00068 5.4815ZM15.0502 23.9542C7.61315 23.9542 1.5263 18.0621 1.21195 10.7012H28.8884C28.574 18.0621 22.4872 23.9542 15.0502 23.9542Z" fill="#FFC632"/>
<path d="M25.0987 16.4568C24.8308 16.2628 24.4559 16.3218 24.2611 16.5887C22.1235 19.5186 18.6804 21.2678 15.0508 21.2678C14.7196 21.2678 14.4512 21.5353 14.4512 21.8654C14.4512 22.1954 14.7196 22.4629 15.0508 22.4629C17.0688 22.4629 19.0754 21.975 20.8535 21.0521C22.574 20.1591 24.0876 18.8588 25.231 17.2917C25.4258 17.0247 25.3665 16.6509 25.0987 16.4568Z" fill="#FFC632"/>
<path d="M26.4109 13.7729C26.1031 13.6511 25.7546 13.8011 25.6324 14.1079C25.5566 14.2981 25.4745 14.4889 25.3884 14.6748C25.2496 14.9745 25.3807 15.3296 25.6814 15.4679C25.7628 15.5054 25.8482 15.5231 25.9324 15.5231C26.1589 15.5231 26.3759 15.3943 26.4771 15.1758C26.5724 14.9701 26.6632 14.7592 26.747 14.5488C26.8692 14.2421 26.7187 13.8947 26.4109 13.7729Z" fill="#FFC632"/>
</svg>
