<svg width="29" height="28" viewBox="0 0 29 28" fill="none" xmlns="http://www.w3.org/2000/svg">
<path d="M27.9258 0.166773C27.702 -0.0562422 27.3394 -0.0562422 27.1155 0.166773L24.248 3.02474C22.998 2.16106 21.2652 2.2828 20.1524 3.39175C19.5972 3.94524 19.2889 4.65284 19.2266 5.37773L18.7567 4.90933C18.5328 4.68631 18.1702 4.68631 17.9463 4.90933L13.447 9.3937L12.3393 8.28973C12.1155 8.06671 11.7528 8.06671 11.529 8.28973L9.25963 10.5515C9.15219 10.6586 9.09183 10.8038 9.09183 10.9552C9.09183 11.1067 9.15225 11.252 9.25963 11.359L11.2411 13.3338C11.1953 13.3378 11.1495 13.3417 11.1037 13.3477C10.7899 13.3883 10.5686 13.6748 10.6094 13.9876C10.6502 14.3003 10.9376 14.521 11.2514 14.4802C11.8925 14.3972 12.5216 14.6103 12.9777 15.0651C13.7819 15.8666 13.7819 17.1709 12.9777 17.9724C12.1736 18.7739 10.8649 18.774 10.0606 17.9724C9.59302 17.5064 9.38128 16.8648 9.47944 16.2119C9.5263 15.9 9.31071 15.6092 8.99773 15.5624C8.6853 15.5159 8.39317 15.7306 8.34615 16.0425C8.33599 16.1101 8.32842 16.1778 8.32272 16.2455L7.28912 15.2154C7.18163 15.1083 7.03595 15.0482 6.88401 15.0482C6.73208 15.0482 6.58634 15.1084 6.47891 15.2154L4.23054 17.4563C4.00677 17.6793 4.00677 18.0409 4.23054 18.2639L6.59518 20.6207C6.58859 20.6267 6.58173 20.6323 6.57531 20.6386L0.167821 27.0246C-0.0559404 27.2476 -0.0559404 27.6092 0.167821 27.8323C0.279757 27.9438 0.426371 27.9995 0.572984 27.9995C0.719598 27.9995 0.866212 27.9438 0.978092 27.8323L7.38558 21.4462C7.39195 21.4399 7.39749 21.433 7.40353 21.4265L9.82732 23.8422C9.93481 23.9493 10.0805 24.0094 10.2324 24.0094C10.3844 24.0094 10.5301 23.9492 10.6376 23.8422L12.886 21.6013C12.9934 21.4942 13.0538 21.3489 13.0538 21.1975C13.0538 21.046 12.9934 20.9007 12.886 20.7937L11.7917 19.7031C12.5202 19.6418 13.2316 19.3345 13.7879 18.7801C14.343 18.2268 14.6512 17.5196 14.7137 16.7951L16.7553 18.8299C16.8628 18.9369 17.0085 18.9971 17.1605 18.9971C17.3125 18.9971 17.4581 18.9369 17.5656 18.8299L19.8349 16.568C19.9423 16.461 20.0026 16.3157 20.0026 16.1643C20.0026 16.0129 19.9422 15.8676 19.8349 15.7605L19.0385 14.9667C18.8146 14.7437 18.452 14.7437 18.2281 14.9667C18.0044 15.1898 18.0044 15.5513 18.2281 15.7743L18.6194 16.1643L17.1604 17.6185L10.4751 10.9552L11.9341 9.50105L13.0416 10.6048C13.0416 10.6049 13.0417 10.6049 13.0418 10.605C13.0418 10.6051 13.042 10.6052 13.0421 10.6053L15.6418 13.1964C15.8656 13.4194 16.2283 13.4194 16.4521 13.1964C16.6759 12.9734 16.6759 12.6118 16.4521 12.3888L14.2572 10.2012L18.3514 6.12066L21.9519 9.70914L18.5875 13.0624C18.3637 13.2854 18.3637 13.6469 18.5875 13.87C18.6994 13.9815 18.846 14.0372 18.9926 14.0372C19.1393 14.0372 19.2859 13.9815 19.3978 13.87L23.1674 10.113C23.3911 9.88994 23.3911 9.5284 23.1674 9.30533L22.699 8.83857C22.7449 8.83458 22.7907 8.82993 22.8366 8.82402C23.1504 8.78339 23.3717 8.49688 23.3309 8.18412C23.2901 7.87137 23.0029 7.6507 22.6889 7.6915C22.0479 7.77446 21.4188 7.56134 20.9626 7.10662C20.1584 6.30506 20.1584 5.00082 20.9626 4.19927C21.7667 3.39777 23.0754 3.39771 23.8797 4.19927C24.3472 4.66531 24.559 5.30696 24.4609 5.95988C24.414 6.27176 24.6296 6.56253 24.9426 6.60934C25.2552 6.6561 25.5472 6.44118 25.5942 6.12924C25.7159 5.32025 25.5176 4.49611 25.058 3.83248L27.9257 0.974398C28.1496 0.751383 28.1496 0.389789 27.9258 0.166773ZM10.2325 22.6309L5.44586 17.8602L6.88401 16.4268L11.6706 21.1975L10.2325 22.6309Z" fill="#FFC632"/>
</svg>
