<svg width="56" height="56" viewBox="0 0 56 56" fill="none" xmlns="http://www.w3.org/2000/svg">
<circle cx="28" cy="28" r="28" fill="#85241F"/>
<path d="M41.1815 16.9918C41.1387 16.5289 40.7491 16.1754 40.284 16.1773H16.7219C16.2482 16.1761 15.8537 16.5403 15.8174 17.0125L14.0018 42.48C13.986 42.7346 14.0757 42.9842 14.2502 43.1703C14.4289 43.3596 14.6804 43.4628 14.9405 43.4533H42.0925C42.3452 43.4563 42.5878 43.3522 42.76 43.167C42.9323 42.9814 43.0183 42.7321 42.9967 42.48L41.1815 16.9918ZM15.8868 41.638L17.5643 17.9591H39.4349L41.1195 41.638H15.8868Z" fill="white"/>
<path d="M23.502 17.9583H25.3176V20.202H25.3179C25.2766 20.6729 24.8824 21.0341 24.4099 21.0341C23.9374 21.0341 23.5433 20.6729 23.502 20.202L23.502 17.9583Z" fill="white"/>
<path d="M33.4986 15.9772V16.1776H31.6898V15.9982C31.6384 14.8952 31.0201 13.8972 30.0555 13.3598C29.0908 12.8226 27.9169 12.8226 26.9519 13.3598C25.9872 13.8973 25.3691 14.8952 25.3179 15.9982V16.1776H23.502V15.9982C23.502 14.2125 24.4546 12.5624 26.0011 11.6696C27.5477 10.7768 29.4529 10.7768 30.9995 11.6696C32.546 12.5624 33.4986 14.2125 33.4986 15.9982" fill="white"/>
<path d="M31.6895 17.9581H33.4983V20.2018C33.4983 20.7014 33.0933 21.1064 32.5937 21.1064C32.0944 21.1064 31.6895 20.7014 31.6895 20.2018V17.9581Z" fill="white"/>
</svg>
