<svg width="23" height="27" viewBox="0 0 23 27" fill="none" xmlns="http://www.w3.org/2000/svg">
<path d="M22.5697 22.4134C22.518 22.7092 22.3945 23.0853 22.1988 23.5422C22.0032 23.999 21.8197 24.3535 21.6484 24.6057C21.3169 25.1122 20.5304 25.5729 19.2888 25.988C18.1356 26.3621 17.0423 26.4588 16.009 26.2782C15.7058 26.2252 15.4143 26.1545 15.1347 26.0662C14.855 25.9778 14.5442 25.853 14.2019 25.6915C13.8598 25.5302 13.6069 25.4042 13.4434 25.3135C13.2798 25.2229 12.9877 25.0562 12.5673 24.8134C12.1468 24.5707 11.8888 24.424 11.7935 24.3734C10.7599 23.7977 9.85655 23.1714 9.08377 22.4946C7.79749 21.3783 6.51848 19.9386 5.24665 18.1756C3.97489 16.4124 3.01789 14.7525 2.37553 13.1958C1.98386 12.2582 1.68529 11.2185 1.47972 10.0765C1.4632 9.97202 1.409 9.68603 1.31713 9.21854C1.22525 8.75106 1.16323 8.42693 1.13118 8.24643C1.09913 8.0659 1.06318 7.79159 1.02334 7.42345C0.983501 7.05531 0.968384 6.72814 0.977819 6.44195C0.987418 6.15581 1.01798 5.86483 1.06967 5.56909C1.24577 4.56145 1.71019 3.59292 2.46289 2.66362C3.28511 1.66734 3.99713 1.10339 4.59889 0.971465C4.90053 0.900139 5.30532 0.852329 5.81304 0.828159C6.32076 0.803993 6.72609 0.818462 7.02936 0.871464C7.18654 0.898933 7.30164 0.936008 7.3745 0.982497C7.56521 1.0835 7.79012 1.5518 8.04908 2.38705C8.1363 2.6168 8.25307 2.94181 8.39952 3.3625C8.54595 3.78317 8.68174 4.16522 8.80689 4.50868C8.93201 4.85229 9.05489 5.17554 9.17546 5.47878C9.20157 5.52841 9.27591 5.68257 9.39853 5.94094C9.52115 6.19932 9.60796 6.41483 9.65877 6.58751C9.70961 6.76001 9.7217 6.92308 9.69491 7.07636C9.65661 7.29547 9.44877 7.54133 9.0712 7.81388C8.69364 8.08643 8.29289 8.32683 7.86879 8.53488C7.4447 8.74294 7.04584 8.97235 6.67214 9.22297C6.29841 9.47357 6.09437 9.69762 6.05991 9.89481C6.04268 9.99339 6.04926 10.1216 6.07952 10.2792C6.10978 10.4368 6.13797 10.5574 6.16379 10.6409C6.18977 10.7244 6.24538 10.8697 6.33064 11.0765C6.41607 11.2833 6.46241 11.3986 6.46982 11.4225C7.06116 13.0721 7.81328 14.5297 8.72627 15.7954C9.63927 17.061 10.7924 18.2446 12.1855 19.3457C12.2061 19.3606 12.3016 19.4421 12.4726 19.5906C12.6435 19.739 12.7647 19.8392 12.8368 19.8912C12.9087 19.9433 13.0157 20.0099 13.1577 20.0911C13.2997 20.1724 13.4213 20.2218 13.5224 20.2394C13.7246 20.2748 14.0101 20.1639 14.3792 19.9067C14.7483 19.6494 15.1053 19.362 15.45 19.0441C15.7949 18.7263 16.1632 18.4408 16.5546 18.1875C16.946 17.9341 17.2541 17.8272 17.4788 17.8664C17.6359 17.8939 17.7894 17.9603 17.9388 18.0654C18.0882 18.1705 18.267 18.3231 18.4752 18.5231C18.6832 18.7231 18.8069 18.8435 18.846 18.8842C19.0981 19.0975 19.3689 19.3198 19.6582 19.5509C19.9477 19.7821 20.2708 20.0361 20.6274 20.3129C20.9841 20.5898 21.2585 20.807 21.4509 20.9648C22.1701 21.4856 22.5461 21.8505 22.579 22.0592C22.5994 22.1418 22.596 22.2597 22.5692 22.413L22.5697 22.4134Z" fill="white"/>
</svg>
